<svg xmlns="http://www.w3.org/2000/svg" xml:space="preserve" width="2.0207in" height="2.2711in" version="1.1" viewBox="0 0 682 767"
  xmlns:xlink="http://www.w3.org/1999/xlink">
  <g>
    <path style="fill:#A179DC" d="M682 225c0,-12 -3,-24 -8,-34 -6,-9 -14,-17 -25,-24 -91,-52 -182,-104 -272,-157 -25,-14 -49,-13 -73,1 -36,21 -217,125 -271,156 -22,13 -33,33 -33,58 0,106 0,211 0,316 0,13 3,24 8,34 5,10 14,18 25,24 54,32 235,135 271,157 24,14 48,14 73,0 90,-52 181,-104 272,-157 11,-6 20,-14 25,-24 6,-10 8,-21 8,-34 0,0 0,-210 0,-316z"/>
    <path style="fill:#390091" d="M682 225c0,-12 -3,-24 -8,-34l-332 191 332 193c6,-10 8,-21 8,-34 0,0 0,-210 0,-316z"/>
    <path style="fill:#280068" d="M342 382l-334 193c5,10 14,18 25,24 54,32 235,135 271,157 24,14 48,14 73,0 90,-52 181,-104 272,-157 11,-6 20,-14 25,-24l-332 -193z"/>
    <path style="fill:white" d="M539 310l0 36 36 0 0 -36 18 0 0 36 36 0 0 18 -36 0 0 36 36 0 0 18 -36 0 0 36 -18 0 0 -36 -36 0 0 36 -18 0 0 -36 -36 0 0 -18 36 0 0 -36 -36 0 0 -18 36 0 0 -36 18 0zm36 54l-36 0 0 36 36 0 0 -36z"/>
    <path style="fill:white" d="M343 130c94,0 176,51 219,126l0 0 -110 63c-22,-37 -62,-61 -108,-62l-1 0c-70,0 -126,57 -126,126 0,23 6,45 16,63 22,38 63,64 110,64 47,0 88,-26 110,-65l-1 1 111 64c-44,75 -125,126 -217,127l-3 0c-94,0 -176,-51 -220,-127 -21,-38 -34,-81 -34,-127 0,-140 114,-253 254,-253z"/>
  </g>
</svg>
